<?xml version="1.0" encoding="UTF-8"?>
<svg version="1.1" xmlns="http://www.w3.org/2000/svg" width="1500" height="303">
<path d="M0 0 C9.24 0 18.48 0 28 0 C28.495 8.415 28.495 8.415 29 17 C29.82185791 15.78876465 30.64371582 14.5775293 31.49047852 13.32958984 C36.90659919 6.28613152 42.50178433 0.14060222 51.66209984 -1.26578903 C60.59993627 -2.21531321 69.60862037 -1.83281582 78.57019043 -1.45874023 C81.73678248 -1.34672651 84.9017518 -1.31762099 88.07004452 -1.29146385 C91.88992136 -1.25587016 95.70834675 -1.17285196 99.52734375 -1.0859375 C100.59478475 -1.06728701 100.59478475 -1.06728701 101.68379021 -1.04825974 C111.76497557 -0.82865688 119.77382077 0.58080433 127.65625 7.24609375 C128.2646875 7.96925781 128.873125 8.69242188 129.5 9.4375 C130.1290625 10.15808594 130.758125 10.87867187 131.40625 11.62109375 C135.15648538 17.21887156 135.30131845 22.74131335 135.30639648 29.24316406 C135.31472 30.1545665 135.32304352 31.06596893 135.33161926 32.00498962 C135.35565164 35.00857864 135.36448363 38.01195013 135.37109375 41.015625 C135.38006598 43.1130174 135.38918793 45.21040916 135.39845276 47.30780029 C135.41492749 51.70244906 135.42263998 56.09702179 135.42553711 60.49169922 C135.43091591 66.10483222 135.46858229 71.7172439 135.51428127 77.33017349 C135.54412191 81.66266446 135.55126221 85.99498328 135.55226326 90.32756805 C135.55645246 92.39590505 135.56883415 94.46424317 135.58978081 96.53247833 C135.79601691 118.65875628 135.79601691 118.65875628 128.06858826 127.11309814 C122.13772435 133.06292163 114.78942819 135.3261956 106.48600769 135.3732605 C105.7235524 135.36247467 104.96109711 135.35168884 104.17553711 135.34057617 C102.9299855 135.34123329 102.9299855 135.34123329 101.65927124 135.34190369 C98.94837908 135.33983429 96.2381262 135.31659192 93.52734375 135.29296875 C91.63448932 135.2873662 89.7416305 135.28309922 87.84877014 135.28010559 C82.89213835 135.26870873 77.93577468 135.23928644 72.97924805 135.20599365 C67.01865427 135.16975359 61.05797033 135.15610703 55.09729767 135.13863373 C46.06467924 135.10964565 37.03264789 135.05212257 28 135 C28 161.4 28 187.8 28 215 C18.76 215 9.52 215 0 215 C0 144.05 0 73.1 0 0 Z M28 24 C28 58.65 28 93.3 28 129 C32.68986602 124.98011484 36.13148529 121.73303656 40.02270508 117.20581055 C43.94275157 113.06002199 47.17168327 111.21078968 52.94018555 110.65942383 C55.50545369 110.62071675 58.0720964 110.63766923 60.63671875 110.70703125 C61.84444946 110.69845093 63.05218018 110.68987061 64.29650879 110.68103027 C68.76035952 110.66518461 73.22414235 110.744288 77.6875 110.8125 C92.6921875 110.9053125 92.6921875 110.9053125 108 111 C108 82.29 108 53.58 108 24 C81.6 24 55.2 24 28 24 Z " fill="#7966FA" transform="translate(1364,88)"/>
<path d="M0 0 C1.35751122 -0.00788544 1.35751122 -0.00788544 2.7424469 -0.01593018 C5.71788064 -0.02907503 8.69277421 -0.02041084 11.66821289 -0.01025391 C13.74654747 -0.0122764 15.82488135 -0.0151893 17.9032135 -0.01895142 C22.25325292 -0.02336746 26.60310716 -0.01696746 30.953125 -0.00292969 C36.51582321 0.01415096 42.07808677 0.00432337 47.640769 -0.01364708 C51.93114975 -0.02451341 56.22142831 -0.02102531 60.51181221 -0.0132637 C62.56223159 -0.01126902 64.61266039 -0.01369513 66.66306877 -0.02070236 C69.53474188 -0.02836253 72.40572194 -0.01664828 75.27734375 0 C76.11655365 -0.00607269 76.95576355 -0.01214539 77.82040405 -0.0184021 C85.70230244 0.06580568 92.21248198 2.17901139 98.09790039 7.57958984 C106.82243958 17.40796367 107.81210642 31.59213759 107.38876247 44.23416424 C106.66613388 55.15907239 102.8288837 61.71201441 95.16821289 69.36865234 C94.61051838 69.93784267 94.05282387 70.507033 93.47822952 71.09347153 C82.6075361 81.79853417 72.18369493 83.97812259 57.26788521 83.91642952 C51.93279458 83.82294121 46.62035102 83.52170372 41.29669189 83.17346191 C36.70632962 82.902804 32.11198169 82.78779341 27.51586914 82.65771484 C18.56825832 82.38247116 9.63779827 81.94166773 0.70336914 81.38818359 C1.54649658 80.4161499 2.38962402 79.44411621 3.25830078 78.44262695 C5.01374604 76.41081925 6.71541797 74.3723245 8.34005737 72.23391724 C14.23431811 64.48420051 20.07877393 57.46411518 30.14526367 56.01269531 C37.37596231 55.51490654 44.54136701 55.89718801 51.76586914 56.32568359 C54.28970019 56.4111355 56.81381228 56.48867067 59.33813477 56.55810547 C65.47263327 56.72923523 71.56744132 57.06119058 77.70336914 57.38818359 C77.70336914 46.49818359 77.70336914 35.60818359 77.70336914 24.38818359 C51.63336914 24.38818359 25.56336914 24.38818359 -1.29663086 24.38818359 C-1.29663086 53.09818359 -1.29663086 81.80818359 -1.29663086 111.38818359 C34.01336914 111.38818359 69.32336914 111.38818359 105.70336914 111.38818359 C105.70336914 119.30818359 105.70336914 127.22818359 105.70336914 135.38818359 C91.1427201 135.47866996 76.58224709 135.55227334 62.02137947 135.59543228 C55.25967427 135.61600929 48.49815688 135.64403594 41.73657227 135.68994141 C35.20729152 135.73424838 28.67813234 135.75734365 22.14870834 135.76769257 C19.66171072 135.77506466 17.17472336 135.78946054 14.68780899 135.81110382 C11.19553106 135.84027892 7.70405075 135.84413356 4.21166992 135.84228516 C3.19098923 135.85666626 2.17030853 135.87104736 1.11869812 135.88586426 C-8.07824239 135.8334346 -16.0070201 133.38705447 -22.82788086 127.03271484 C-28.69504616 120.46336221 -29.44683566 113.96595813 -29.48950195 105.46386719 C-29.50176819 104.11183197 -29.50176819 104.11183197 -29.51428223 102.73248291 C-29.53908559 99.75053563 -29.55564134 96.76863589 -29.57006836 93.78662109 C-29.57539204 92.76571003 -29.58071571 91.74479897 -29.58620071 90.6929512 C-29.61291319 85.28684491 -29.63229226 79.88076152 -29.64672852 74.47460938 C-29.66005411 70.01085863 -29.68788447 65.54756649 -29.72875977 61.08398438 C-29.77819857 55.68469361 -29.8028636 50.28581801 -29.8099556 44.88631058 C-29.81664897 42.83470756 -29.83182082 40.78311311 -29.85584641 38.73163986 C-30.1007289 16.55256239 -30.1007289 16.55256239 -22.30648804 8.27450562 C-15.57104734 1.75717093 -9.1168501 -0.06581263 0 0 Z " fill="#CA69CA" transform="translate(524.296630859375,87.61181640625)"/>
<path d="M0 0 C0.89481583 -0.0049649 1.78963165 -0.00992981 2.71156311 -0.01504517 C5.67067231 -0.02964476 8.62972789 -0.03646554 11.58886719 -0.04199219 C13.64906821 -0.04774595 15.70926922 -0.05350366 17.76947021 -0.05926514 C22.09029388 -0.0697692 26.41109896 -0.0756156 30.73193359 -0.07910156 C36.25768284 -0.08458154 41.78318509 -0.1086016 47.30885696 -0.13707352 C51.56576241 -0.15573544 55.82260881 -0.16090742 60.0795517 -0.16243744 C62.11602883 -0.16545703 64.1525051 -0.17346208 66.18894196 -0.18662262 C69.04411883 -0.20375549 71.89869825 -0.20178505 74.75390625 -0.1953125 C76.00576469 -0.20913467 76.00576469 -0.20913467 77.28291321 -0.22323608 C85.7600646 -0.16330391 92.11840498 2.39987874 98.37402344 8.18847656 C104.95753072 15.56025301 106.02050498 24.98719598 106.6394043 34.4855957 C106.79492461 36.70927263 106.79492461 36.70927263 107.15209961 38.83813477 C108.53600478 47.98084419 106.04608857 54.61745106 100.65625 62.05664062 C92.53154996 72.52298839 83.27283316 81.51937593 69.68432617 83.23461914 C60.19218817 84.11071495 50.68311495 83.57570872 41.19262695 82.94641113 C36.66263471 82.67568379 32.12859653 82.56072932 27.59277344 82.43066406 C18.76303991 82.15545567 9.95239023 81.71476257 1.13574219 81.16113281 C6.08293842 71.22591919 12.16148677 61.05057391 23.13574219 57.16113281 C40.57846513 53.85874383 59.57039327 56.04940187 77.13574219 57.16113281 C77.13574219 46.27113281 77.13574219 35.38113281 77.13574219 24.16113281 C51.06574219 24.16113281 24.99574219 24.16113281 -1.86425781 24.16113281 C-1.86425781 52.87113281 -1.86425781 81.58113281 -1.86425781 111.16113281 C33.44574219 111.16113281 68.75574219 111.16113281 105.13574219 111.16113281 C105.13574219 119.08113281 105.13574219 127.00113281 105.13574219 135.16113281 C90.68819777 135.22897473 76.24075959 135.28398734 61.79309177 135.31656933 C55.08408957 135.33200771 48.3751937 135.35303887 41.66625977 135.38745117 C35.18883577 135.42010492 28.71152211 135.43799866 22.23402214 135.44576454 C19.76574912 135.45129721 17.29748197 135.46210112 14.82925606 135.47832298 C11.36561269 135.50017668 7.9024222 135.50309635 4.4387207 135.50170898 C3.42379547 135.51249481 2.40887024 135.52328064 1.3631897 135.53439331 C-6.91886645 135.49861967 -14.52427342 133.94249034 -21.22753906 128.81738281 C-28.32243592 121.63782132 -30.0098828 114.11024639 -30.04125977 104.40454102 C-30.04783096 103.52108505 -30.05440216 102.63762909 -30.06117249 101.72740173 C-30.08087157 98.80557159 -30.09256131 95.88379281 -30.10253906 92.96191406 C-30.10661459 91.96181997 -30.11069012 90.96172588 -30.11488914 89.93132591 C-30.13573666 84.63659243 -30.15004341 79.34188476 -30.15942383 74.04711914 C-30.17047806 68.59089432 -30.20487057 63.13507845 -30.24459553 57.67899799 C-30.27079878 53.47266404 -30.27911903 49.26642693 -30.28270531 45.06001854 C-30.28756261 43.04947336 -30.29915205 41.03893226 -30.3177433 39.02846718 C-30.34221086 36.20688528 -30.3411557 33.38635378 -30.33422852 30.56469727 C-30.34703857 29.74307098 -30.35984863 28.9214447 -30.37304688 28.07492065 C-30.29858354 19.70300618 -27.14838836 12.81862716 -21.50878906 6.66503906 C-15.02394167 0.73471544 -8.45857175 0.01122088 0 0 Z " fill="#BA68D4" transform="translate(700.8642578125,87.8388671875)"/>
<path d="M0 0 C0.33 34.65 0.66 69.3 1 105 C6.61 99.39 12.22 93.78 18 88 C24.19610494 86.47910062 28.36212163 85.86116443 34.4375 86.19921875 C35.93855517 86.22087878 37.43972746 86.23543458 38.94091797 86.24336243 C42.05373743 86.27658855 45.15798174 86.36368357 48.26806641 86.49780273 C52.23011679 86.66858695 56.18687759 86.74686039 60.1521759 86.79066753 C63.97714963 86.83555782 67.80089988 86.92000479 71.625 87.01171875 C72.33929169 87.02681677 73.05358337 87.04191479 73.78952026 87.05747032 C83.90079816 87.31325308 93.00844275 88.18174133 100.375 95.8125 C108.17248623 104.18355877 108.15303534 113.87636799 108.11352539 124.80053711 C108.11367142 125.86469849 108.11381744 126.92885986 108.1139679 128.02526855 C108.11327388 131.52598137 108.10550545 135.02664029 108.09765625 138.52734375 C108.09579025 140.96114574 108.09436721 143.39494811 108.09336853 145.82875061 C108.08955766 152.22214807 108.07973959 158.61552268 108.06866455 165.00891113 C108.05841967 171.53783865 108.05386432 178.06676988 108.04882812 184.59570312 C108.03811602 197.39714706 108.02053081 210.19856805 108 223 C98.76 223 89.52 223 80 223 C80 186.37 80 149.74 80 112 C53.6 112 27.2 112 0 112 C0 148.63 0 185.26 0 223 C-9.24 223 -18.48 223 -28 223 C-28.60448137 197.7647744 -29.06715361 172.53131909 -29.34711647 147.29028511 C-29.48062723 135.56730309 -29.66226332 123.84892806 -29.96142578 112.12890625 C-30.22236982 101.90116824 -30.38871822 91.67676752 -30.44630086 81.44579303 C-30.47992092 76.03717822 -30.55756442 70.6381001 -30.74898148 65.23257828 C-32.00074555 28.50566382 -32.00074555 28.50566382 -20.3887099 15.46086538 C-5.58088471 0 -5.58088471 0 0 0 Z " fill="#9C67E6" transform="translate(1028,0)"/>
<path d="M0 0 C4.28046588 0.11182663 8.55972538 0.14109546 12.84144497 0.16727638 C17.98286976 0.20279862 23.12320588 0.28595849 28.26397705 0.37280273 C29.71343122 0.39145323 29.71343122 0.39145323 31.19216728 0.4104805 C42.84446528 0.59730804 52.15270899 0.86502666 61.4241333 8.70483398 C62.0325708 9.42799805 62.6410083 10.15116211 63.2678833 10.89624023 C63.8969458 11.61682617 64.5260083 12.33741211 65.1741333 13.07983398 C69.31850634 19.26592021 69.04388272 25.52319186 68.99493408 32.6965332 C68.99522614 33.81906998 68.99551819 34.94160675 68.99581909 36.09815979 C68.99442858 39.79916176 68.97888017 43.49996104 68.9631958 47.20092773 C68.95946469 49.77067963 68.95661818 52.34043294 68.95462036 54.91018677 C68.9477709 60.97678037 68.93201667 67.04329065 68.91192138 73.10985291 C68.88953342 80.01916113 68.87856168 86.92847288 68.86853051 93.83780837 C68.84764954 108.0448309 68.81098497 122.25176816 68.7678833 136.45874023 C59.8578833 136.45874023 50.9478833 136.45874023 41.7678833 136.45874023 C41.2728833 127.54874023 41.2728833 127.54874023 40.7678833 118.45874023 C38.6331958 120.40780273 38.6331958 120.40780273 36.4553833 122.39624023 C35.16577403 123.57370957 33.87159305 124.74685622 32.54710388 125.88494873 C31.17304559 127.10035804 29.85043147 128.37407587 28.55177307 129.66973877 C21.00514053 136.69000719 15.40917288 137.74464791 5.2991333 137.47827148 C3.92874353 137.47161373 2.55833319 137.46840314 1.18792725 137.46842957 C-1.66720786 137.45920064 -4.51975889 137.42034712 -7.37420654 137.35742188 C-11.00207944 137.27816803 -14.62741176 137.25576569 -18.25606537 137.25357533 C-21.08072853 137.2485616 -23.9048668 137.22215528 -26.72932434 137.18869591 C-28.70703609 137.16640635 -30.68485574 137.15444003 -32.66265869 137.14277649 C-42.09927123 136.92132223 -50.94970065 135.7584723 -58.1696167 129.20874023 C-64.68824327 121.92413596 -66.37614435 114.43966101 -66.4352417 104.84936523 C-66.44094177 104.12311951 -66.44664185 103.39687378 -66.45251465 102.64862061 C-66.46192968 101.11561524 -66.46848467 99.58258995 -66.47235107 98.04956055 C-66.48202861 95.72985587 -66.51307234 93.41104886 -66.5446167 91.09155273 C-66.61815113 80.78110831 -66.09051466 71.80003506 -59.2321167 63.45874023 C-50.88678857 56.14781202 -43.3042722 54.29004133 -32.29901123 54.34521484 C-31.527603 54.34506882 -30.75619476 54.34492279 -29.96141052 54.34477234 C-27.42922078 54.34546515 -24.89710598 54.35322783 -22.3649292 54.36108398 C-20.6023055 54.36295041 -18.83968129 54.36437325 -17.07705688 54.3653717 C-12.45093336 54.36917921 -7.82484152 54.37899434 -3.19873047 54.39007568 C1.5271156 54.40032786 6.25296681 54.40487747 10.9788208 54.40991211 C20.24185551 54.42061826 29.50486676 54.43767338 38.7678833 54.45874023 C37.27672571 57.59461314 35.81826896 59.59921419 33.24835205 61.95483398 C32.55548096 62.59614258 31.86260986 63.23745117 31.14874268 63.89819336 C30.42493408 64.55754883 29.70112549 65.2169043 28.9553833 65.89624023 C27.53152845 67.20670212 26.10833659 68.51788478 24.68585205 69.82983398 C24.05445313 70.40660889 23.4230542 70.98338379 22.77252197 71.57763672 C20.63243963 73.47043528 20.63243963 73.47043528 18.79180908 76.1550293 C14.02801676 79.78421905 9.28871148 79.07705251 3.46710205 78.94702148 C2.27559036 78.93994675 1.08407867 78.93287201 -0.14353943 78.92558289 C-3.94454042 78.89762209 -7.74406184 78.83487497 -11.5446167 78.77124023 C-14.12337145 78.74615979 -16.70214932 78.72334619 -19.28094482 78.70288086 C-25.59902897 78.65204336 -31.91391929 78.55418128 -38.2321167 78.45874023 C-38.2321167 89.67874023 -38.2321167 100.89874023 -38.2321167 112.45874023 C-11.8321167 112.45874023 14.5678833 112.45874023 41.7678833 112.45874023 C41.7678833 83.74874023 41.7678833 55.03874023 41.7678833 25.45874023 C6.1278833 25.45874023 -29.5121167 25.45874023 -66.2321167 25.45874023 C-64.2521167 23.14874023 -62.2721167 20.83874023 -60.2321167 18.45874023 C-59.30923076 17.02765266 -58.41183744 15.57921891 -57.55999756 14.10473633 C-44.48804614 -4.98530103 -20.46191642 -0.63064469 0 0 Z " fill="#ED6AB5" transform="translate(185.23211669921875,86.541259765625)"/>
<path d="M0 0 C9.24 0 18.48 0 28 0 C28.495 7.92 28.495 7.92 29 16 C29.75039551 14.85950195 30.50079102 13.71900391 31.27392578 12.54394531 C36.4329976 5.7030501 41.76236823 0.08953311 50.59101486 -1.18323517 C59.53248367 -2.06789577 68.54032799 -1.69181768 77.50152588 -1.33178711 C80.6736294 -1.22248018 83.84453894 -1.18846405 87.01823235 -1.15752029 C90.8435188 -1.1174169 94.66767581 -1.03828703 98.4921875 -0.953125 C99.20532986 -0.93954201 99.91847221 -0.92595901 100.65322495 -0.91196442 C110.14492193 -0.69372572 118.93397594 -0.01657944 126.62109375 6.078125 C127.22050781 6.79484375 127.81992187 7.5115625 128.4375 8.25 C129.05496094 8.95640625 129.67242187 9.6628125 130.30859375 10.390625 C134.96951307 17.58114256 135.42736001 24.02745637 135.34057617 32.37304688 C135.34101425 33.48612213 135.34145233 34.59919739 135.34190369 35.7460022 C135.33982339 39.40376684 135.31652747 43.06106599 135.29296875 46.71875 C135.28737012 49.26322174 135.28310128 51.80769672 135.28010559 54.35217285 C135.26984426 60.35146369 135.24623034 66.35055649 135.21605712 72.34976816 C135.18243524 79.1841412 135.16600761 86.01852247 135.15097082 92.85295773 C135.11967818 106.90208006 135.06469762 120.95099383 135 135 C125.76 135 116.52 135 107 135 C107 98.37 107 61.74 107 24 C80.93 24 54.86 24 28 24 C28 60.63 28 97.26 28 135 C18.76 135 9.52 135 0 135 C0 90.45 0 45.9 0 0 Z " fill="#DC6ABF" transform="translate(307,88)"/>
<path d="M0 0 C0.92702728 -0.00014603 1.85405457 -0.00029205 2.80917358 -0.0004425 C5.87711924 0.00025485 8.94500439 0.00803902 12.01293945 0.01586914 C14.1385749 0.01773395 16.26421077 0.01915756 18.3898468 0.02015686 C23.98761174 0.0239771 29.58535077 0.0338032 35.18310547 0.04486084 C40.89395802 0.05508555 46.60481476 0.05965676 52.31567383 0.06469727 C63.52336751 0.07542588 74.73104195 0.09249642 85.9387207 0.11352539 C84.05015623 4.28730858 81.19487566 6.86659259 77.8137207 9.86352539 C76.70524919 10.85642168 75.59850414 11.85124844 74.4934082 12.84790039 C73.94014862 13.33212463 73.38688904 13.81634888 72.81686401 14.31524658 C70.89288293 16.06680858 70.89288293 16.06680858 69.368927 18.15496826 C66.48071458 21.71510781 64.27383137 23.82271421 59.71432495 24.81585693 C55.77409155 25.03806182 51.8792722 25.01503577 47.9387207 24.89477539 C46.49287057 24.87983049 45.04697957 24.86845409 43.60107422 24.86047363 C39.81884371 24.83011321 36.03912151 24.75170167 32.25787354 24.6628418 C27.70862158 24.5661027 23.15852465 24.52979379 18.60853577 24.48321533 C11.71685983 24.40596783 4.8306727 24.25260066 -2.0612793 24.11352539 C-2.0612793 33.68352539 -2.0612793 43.25352539 -2.0612793 53.11352539 C1.80461914 53.09032227 5.67051758 53.06711914 9.65356445 53.04321289 C13.41666333 53.02759499 17.17975853 53.0154624 20.94287109 53.00366211 C23.54900745 52.99363291 26.15513263 52.98000628 28.76123047 52.96264648 C32.5170366 52.93826279 36.27269333 52.92701115 40.02856445 52.91821289 C41.18517075 52.90789032 42.34177704 52.89756775 43.53343201 52.88693237 C54.25473375 52.88546064 62.58658714 54.01735176 70.9387207 61.11352539 C79.45363425 69.9195471 79.28806493 80.04912298 79.25439453 91.6940918 C79.25123759 93.97631778 79.27473623 96.2572405 79.30004883 98.53930664 C79.34685187 108.78609985 79.15844565 118.49905036 71.9387207 126.48852539 C71.2580957 127.28000977 70.5774707 128.07149414 69.8762207 128.88696289 C59.7761322 136.54261508 48.08138119 135.64305419 36.05200195 135.50415039 C34.13958837 135.49667708 32.22716706 135.49098931 30.31474304 135.48699951 C25.31530087 135.4718289 20.31633387 135.43262232 15.31707764 135.38818359 C10.20209172 135.34704457 5.08702799 135.32894894 -0.02807617 135.30883789 C-10.03938475 135.26611853 -20.05021791 135.19584018 -30.0612793 135.11352539 C-30.0612793 127.19352539 -30.0612793 119.27352539 -30.0612793 111.11352539 C-3.3312793 111.11352539 23.3987207 111.11352539 50.9387207 111.11352539 C50.9387207 99.89352539 50.9387207 88.67352539 50.9387207 77.11352539 C44.4727832 77.18313477 44.4727832 77.18313477 37.8762207 77.25415039 C34.42227134 77.27990462 30.96834939 77.30158497 27.51435852 77.32052612 C23.87745651 77.34158093 20.24093213 77.36967957 16.60424805 77.4152832 C13.09640808 77.45899198 9.5889325 77.4827146 6.08084106 77.49303436 C4.10227427 77.50393793 2.12385249 77.53512374 0.14550781 77.56671143 C-9.12334115 77.56900554 -15.53037843 76.05071632 -22.6784668 69.72290039 C-30.39543642 60.74156851 -30.24214339 50.00906738 -30.2487793 38.80102539 C-30.26102539 37.72401367 -30.27327148 36.64700195 -30.28588867 35.53735352 C-30.30628396 24.31314681 -29.34596132 16.11235364 -21.7487793 7.48852539 C-15.0061119 1.52988909 -8.87578075 -0.03636425 0 0 Z " fill="#AB68DD" transform="translate(871.061279296875,87.886474609375)"/>
<path d="M0 0 C0.04675156 25.51289395 0.08200433 51.02578146 0.10362434 76.53870964 C0.11393037 88.38519601 0.12797786 100.23165573 0.15087891 112.078125 C0.17083336 122.40529115 0.18372133 132.73243799 0.18817699 143.05962288 C0.19078087 148.52614044 0.19688719 153.99260279 0.21146011 159.45910263 C0.22507646 164.60870184 0.22921444 169.75822332 0.22621536 174.90783882 C0.22676371 176.79355988 0.23071692 178.67928365 0.23841095 180.56498909 C0.33840218 206.345008 0.33840218 206.345008 -8 216 C-15.26126173 222.69015125 -22.77892782 223.28978391 -32.3046875 223.1953125 C-33.38380402 223.1924826 -34.46292053 223.18965271 -35.57473755 223.18673706 C-39.00827299 223.1755766 -42.44154391 223.1504793 -45.875 223.125 C-48.20832956 223.11496487 -50.54166322 223.10583995 -52.875 223.09765625 C-58.583423 223.07565079 -64.29169259 223.04221427 -70 223 C-68.91699761 219.75099283 -68.36840631 219.25293388 -65.8125 217.1875 C-62.88650632 214.79914474 -60.40519564 212.34510501 -58.0234375 209.4296875 C-57.47453857 208.79522705 -56.92563965 208.1607666 -56.36010742 207.50708008 C-55.27776553 206.24874506 -54.23489944 204.95487514 -53.2434082 203.6237793 C-50.77852288 200.8510174 -48.64382469 199.1716882 -44.84240627 198.77465153 C-42.29281259 198.72297117 -39.75933474 198.75462005 -37.21020508 198.82397461 C-36.32491371 198.83668144 -35.43962234 198.84938828 -34.52750397 198.86248016 C-32.35143766 198.89554327 -30.17564877 198.94605376 -28 199 C-28.03594993 197.69855639 -28.03594993 197.69855639 -28.07262611 196.370821 C-28.64984382 175.1414722 -29.0784916 153.91349582 -29.34711647 132.67791939 C-29.4805232 122.40739209 -29.6619313 112.14213802 -29.96142578 101.875 C-30.22272287 92.91296204 -30.38879394 83.95474357 -30.44630086 74.98900211 C-30.47987082 70.25047339 -30.55710573 65.52285655 -30.74898148 60.78787613 C-32.00069181 28.68922731 -32.00069181 28.68922731 -20.3887099 15.8072437 C-5.18392039 0 -5.18392039 0 0 0 Z " fill="#FA6CAD" transform="translate(71,80)"/>
<path d="M0 0 C59.73 0 119.46 0 181 0 C181 8.91 181 17.82 181 27 C121.27 27 61.54 27 0 27 C0 18.09 0 9.18 0 0 Z " fill="#8966F1" transform="translate(1159,249)"/>
<path d="M0 0 C9.24 0 18.48 0 28 0 C28 10.56 28 21.12 28 32 C18.76 32 9.52 32 0 32 C0 21.44 0 10.88 0 0 Z " fill="#FA6CAD" transform="translate(43,34)"/>
</svg>
